<svg xmlns="http://www.w3.org/2000/svg" width="64" height="64" viewBox="0 0 64 64" fill="none"><path fill-rule="evenodd" clip-rule="evenodd" d="M18 8 H46 C52.6 8 58 13.4 58 20 V44 C58 50.6 52.6 56 46 56 H18 C11.4 56 6 50.6 6 44 V20 C6 13.4 11.4 8 18 8 Z M14 22 A3.2 3.2 0 1 0 14 28.4 A3.2 3.2 0 1 0 14 22 Z M14 35.6 A3.2 3.2 0 1 0 14 42 A3.2 3.2 0 1 0 14 35.6 Z M28 22 L28 42 C28 43.6 29.8 44.6 31.2 43.8 L46.4 34 C47.8 33.1 47.8 30.9 46.4 30 L31.2 20.2 C29.8 19.4 28 20.4 28 22 Z" fill="#ffffff"></path></svg>